<?xml version="1.0" encoding="UTF-8"?>
<svg xmlns="http://www.w3.org/2000/svg" width="128" height="50" viewBox="0 0 128 50" fill="none">
  <path d="M18.0011 26.2082C18.6387 26.2082 19.2273 26.1319 19.7668 25.9794C20.3026 25.8278 20.7923 25.6006 21.2355 25.2979C21.6861 24.9902 22.0976 24.6283 22.4698 24.2124C22.8426 23.7956 23.1789 23.321 23.478 22.7891C23.7792 22.2539 24.0409 21.6695 24.2628 21.0367C24.4857 20.4013 24.6704 19.7125 24.8165 18.9702C25.1094 17.4832 25.2559 15.8587 25.2559 14.0969C25.2559 13.217 25.2081 12.3723 25.1127 11.5633C25.0167 10.75 24.8736 9.97487 24.6839 9.23832C24.4939 8.50013 24.2693 7.81012 24.0104 7.16867C23.7544 6.53414 23.4642 5.9483 23.1401 5.41202C22.8185 4.87964 22.4669 4.40324 22.0858 3.98344C21.7046 3.56353 21.2949 3.20022 20.8571 2.89377C20.423 2.58997 19.9665 2.35624 19.4881 2.1932C19.013 2.03117 18.5173 1.93909 18.0011 1.91657L10.7463 1.9172V37.3573H10.7662C10.7932 36.7264 10.8444 36.1068 10.9198 35.4991C11.0064 34.8003 11.1247 34.1107 11.2747 33.4305C11.5762 32.0615 12.019 30.8517 12.6026 29.8012C12.8965 29.2722 13.2291 28.7924 13.6003 28.3623C13.9728 27.9305 14.3839 27.5492 14.8329 27.2183C15.2885 26.8825 15.782 26.63 16.3129 26.4611C16.843 26.2924 17.406 26.208 18.0012 26.208L18.0011 26.2082ZM4.736 41.0466V8.76192C4.736 7.88032 4.73059 7.13194 4.72002 6.51792C4.70883 5.87093 4.69172 5.31213 4.6687 4.84152C4.64643 4.38499 4.60743 3.98747 4.55221 3.64945C4.49849 3.32149 4.42955 3.05253 4.34565 2.8427C4.2674 2.64696 4.17179 2.49021 4.05945 2.37322C3.95466 2.26402 3.83264 2.18767 3.69413 2.14439C3.52217 2.09067 3.318 2.04488 3.08212 2.00752C2.84285 1.96953 2.56534 1.93909 2.25021 1.91657L2 1.89858V0.695312H18.0011C19.5839 0.695312 21.1674 1.00981 22.7512 1.63868C23.5413 1.95242 24.2936 2.33007 25.0076 2.77125C25.7242 3.21393 26.401 3.71914 27.0375 4.28624C27.6771 4.85611 28.2568 5.49115 28.7758 6.19122C29.2926 6.88802 29.7489 7.6496 30.1444 8.47547C30.5416 9.30512 30.8395 10.1892 31.0375 11.1271C31.2354 12.0646 31.3346 13.0547 31.3346 14.0972C31.3346 14.9317 31.2676 15.7365 31.1336 16.5108C30.9997 17.285 30.7985 18.0284 30.5301 18.7403C30.2621 19.4507 29.9484 20.1193 29.5887 20.7458C29.2294 21.3717 28.8213 21.9601 28.3648 22.5102L28.3654 22.5107C27.914 23.0548 27.4281 23.5578 26.9082 24.0193C26.3894 24.4799 25.8398 24.896 25.2596 25.2672H25.2586C24.6754 25.6405 24.077 25.9661 23.4636 26.2438C23.1966 26.3647 22.9265 26.4768 22.6533 26.5802C23.1879 26.6729 23.6899 26.783 24.159 26.9107C24.951 27.1262 25.6527 27.3926 26.2636 27.7098C26.8749 28.027 27.4193 28.3893 27.8968 28.796C28.3756 29.2039 28.7874 29.6572 29.1316 30.1558C29.4735 30.6509 29.7648 31.1862 30.0054 31.7612C30.2453 32.3346 30.4356 32.9492 30.5759 33.6041C30.7144 34.2507 30.8242 34.9322 30.9049 35.6482C30.985 36.357 31.0367 37.1048 31.0598 37.891C31.1277 39.7691 31.2472 41.3945 31.418 42.7669C31.5872 44.126 31.8057 45.2241 32.0734 46.0607C32.3375 46.8862 32.6207 47.5012 32.9226 47.9056C33.1879 48.2609 33.458 48.4385 33.7332 48.4385C34.036 48.4385 34.3142 48.3788 34.5676 48.2596H34.5687C34.825 48.1391 35.0607 47.9558 35.2756 47.7103C35.5042 47.449 35.7029 47.1769 35.8714 46.8941C36.0377 46.6152 36.1754 46.3231 36.2844 46.0182L36.3815 45.746L37.5123 46.2486L37.396 46.4957C37.2065 46.8987 36.9813 47.2809 36.721 47.6418C36.4602 48.0034 36.1647 48.3434 35.8345 48.6618C35.4867 48.9972 35.0654 49.2485 34.5709 49.4154C34.0859 49.579 33.533 49.6609 32.9124 49.6609C32.2617 49.6609 31.654 49.6139 31.0899 49.5199C30.5239 49.4255 30.0035 49.2834 29.5293 49.0937C29.0482 48.9013 28.6081 48.6388 28.2096 48.3067C27.8114 47.975 27.4574 47.5768 27.1481 47.1127C26.8424 46.6542 26.5713 46.1207 26.3352 45.5126C26.1013 44.9102 25.9032 44.2386 25.7413 43.4976C25.5813 42.7664 25.4434 41.9435 25.3277 41.0293C25.2124 40.1181 25.1203 39.1263 25.052 38.0542V38.0489C25.007 37.08 24.936 36.1799 24.8393 35.349C24.7436 34.5265 24.6223 33.7772 24.4759 33.101C24.3302 32.4283 24.1543 31.8196 23.9488 31.275C23.7442 30.7332 23.5099 30.2532 23.2462 29.8356C22.9868 29.425 22.6865 29.068 22.3455 28.7648C22.0059 28.463 21.626 28.215 21.2062 28.0214C20.7814 27.8252 20.3039 27.6781 19.7741 27.5797C19.2401 27.4805 18.649 27.431 18.0014 27.431C17.0146 27.431 16.1583 27.7193 15.4324 28.2956C15.0596 28.5917 14.7175 28.9363 14.4069 29.3287C14.0929 29.7253 13.8089 30.1724 13.5546 30.6697C13.2991 31.1695 13.0735 31.7104 12.8778 32.2917C12.6817 32.8745 12.5163 33.4968 12.3818 34.1582C12.247 34.8214 12.1457 35.499 12.0783 36.1905C12.0113 36.8773 11.9777 37.5843 11.9777 38.3112V38.5803H10.7465V41.0472C10.7465 41.9143 10.7549 42.6647 10.7711 43.2981C10.7878 43.946 10.8136 44.512 10.8481 44.9955C10.8815 45.4638 10.9315 45.8693 10.9978 46.2123C11.0621 46.5449 11.1414 46.8156 11.2353 47.0244C11.3253 47.2247 11.428 47.3848 11.5429 47.5043C11.6494 47.6152 11.7673 47.6923 11.8963 47.7353C12.0473 47.7859 12.232 47.8244 12.4496 47.8508C12.6719 47.8778 12.9265 47.8914 13.2133 47.8914H13.4824V49.1137H2.00025V47.9103L2.25047 47.8926C2.86814 47.8485 3.34944 47.7725 3.69426 47.6647C3.83289 47.6215 3.95479 47.545 4.05958 47.4359C4.17192 47.3189 4.26753 47.1623 4.34577 46.9664C4.42968 46.7566 4.49874 46.4875 4.55233 46.1597C4.60769 45.8217 4.64668 45.4243 4.66882 44.9676C4.69185 44.4971 4.70895 43.9382 4.72015 43.2912C4.73072 42.6772 4.73613 41.9288 4.73613 41.0472L4.736 41.0466ZM46.998 14.6443V41.0466C46.998 41.9282 47.0034 42.6767 47.014 43.2906C47.0252 43.9374 47.0423 44.4964 47.0653 44.967C47.0875 45.4235 47.1265 45.821 47.1818 46.159C47.2355 46.487 47.3043 46.7561 47.3884 46.9659C47.4666 47.1617 47.5622 47.3184 47.6747 47.4355C47.7795 47.5447 47.9014 47.6211 48.0399 47.6644C48.2119 47.7181 48.4162 47.7639 48.6519 47.8013C48.8912 47.8393 49.1687 47.8697 49.4838 47.8922L49.734 47.91V49.1133H38.2519V47.9099L38.5021 47.8922C39.1197 47.8481 39.601 47.7722 39.9459 47.6644C40.0845 47.6211 40.2064 47.5446 40.3112 47.4355C40.4235 47.3185 40.5191 47.1619 40.5974 46.966C40.6813 46.7562 40.7503 46.4871 40.8039 46.1593C40.8593 45.8213 40.8983 45.4239 40.9204 44.9672C40.9435 44.4967 40.9606 43.9378 40.9718 43.2908C40.9823 42.6768 40.9877 41.9284 40.9877 41.0468V18.5448C40.8346 18.5796 40.6796 18.6105 40.5229 18.6371C40.2455 18.6843 39.9612 18.7197 39.6705 18.7428C39.3925 18.7651 39.095 18.7822 38.7783 18.7941C38.4573 18.8062 38.1434 18.8122 37.837 18.8122H37.5679V17.5901H37.837C39.0884 17.5901 40.418 17.3666 41.8258 16.9197V16.9187C42.5244 16.6969 43.2087 16.3811 43.8787 15.9713C44.5525 15.5593 45.2137 15.0514 45.8619 14.4479L45.9398 14.3753H46.998V14.6444V14.6443ZM54.2574 15.5975H49.1957V14.3752H49.4648C50.6629 14.3752 51.8276 14.1534 52.9581 13.7101C53.5256 13.4876 54.0644 13.2183 54.5738 12.9027C55.0822 12.5877 55.5653 12.2238 56.0225 11.8112C56.4774 11.4007 56.8875 10.9492 57.2521 10.4574C57.6189 9.96292 57.9408 9.42752 58.2177 8.85149C58.4927 8.27948 58.6995 7.67753 58.8378 7.0464C58.9761 6.41589 59.0453 5.75646 59.0453 5.06834V4.79925H60.2675V5.06834C60.2675 6.14253 60.1034 7.19559 59.775 8.22727C59.6109 8.74355 59.412 9.23794 59.1789 9.70994C58.9444 10.185 58.6751 10.6387 58.3714 11.071C58.0678 11.5029 57.7316 11.9122 57.3629 12.2985C56.9956 12.6831 56.5954 13.0455 56.1621 13.385C55.7255 13.7273 55.2704 14.0241 54.7979 14.2749C54.7334 14.3091 54.6685 14.3426 54.6031 14.3753H66.492V15.5976H60.2675V37.6952C60.2675 38.8136 60.2786 39.8062 60.3006 40.6728C60.3232 41.5562 60.3574 42.348 60.4033 43.0478C60.4488 43.7423 60.5052 44.3524 60.5722 44.8777C60.6392 45.4024 60.7173 45.8487 60.8065 46.2163C60.8933 46.5744 60.9906 46.8723 61.0984 47.1095C61.1976 47.3276 61.3017 47.4867 61.4106 47.5864C61.522 47.6885 61.6427 47.7651 61.7721 47.8161C61.8995 47.866 62.038 47.8912 62.1874 47.8912C62.6535 47.8697 63.0574 47.7356 63.3987 47.4896C63.7485 47.2375 64.039 46.8647 64.2701 46.371C64.7608 45.3226 65.1184 44.1482 65.3424 42.8483L65.3902 42.5706L66.5428 42.8268L66.4846 43.0882C66.3853 43.5354 66.2939 43.9359 66.2112 44.2878C66.1196 44.6771 66.028 45.055 65.9364 45.4211C65.8413 45.8015 65.7188 46.1538 65.5691 46.4773C65.4183 46.803 65.2395 47.0996 65.0332 47.3667C64.8244 47.6369 64.5759 47.8793 64.2881 48.0937C64.0047 48.3048 63.6817 48.4888 63.3196 48.6457C62.6 48.9574 61.6754 49.1134 60.5458 49.1134C59.1336 49.1134 58.0078 48.8856 57.1685 48.43C56.7417 48.1982 56.3671 47.9032 56.0454 47.545C55.7246 47.188 55.4559 46.7685 55.2392 46.2871C55.0273 45.816 54.8534 45.2829 54.7181 44.6881C54.5836 44.0977 54.4873 43.4495 54.4296 42.7436C54.3731 42.0542 54.3303 41.2833 54.3014 40.4309C54.2722 39.572 54.2575 38.6599 54.2575 37.695V15.5975H54.2574ZM73.9521 15.5975C73.0008 15.5975 72.2283 15.7883 71.6347 16.1698C71.3323 16.3642 71.063 16.5823 70.8271 16.8236C70.5916 17.0645 70.3878 17.33 70.2162 17.6195C70.0397 17.9174 69.8888 18.2241 69.7639 18.5391C69.6383 18.8559 69.5369 19.1847 69.4601 19.5253C69.3831 19.8662 69.3189 20.205 69.2677 20.541C69.2171 20.8725 69.1808 21.1934 69.1586 21.5032L69.1406 21.7534H67.9374V14.3752H90.1902L78.8358 36.742H80.1964L80.0068 37.1289C79.4437 38.2776 79.0185 39.3192 78.7316 40.2535C78.4483 41.176 78.3009 41.9891 78.29 42.6927C78.2791 43.3968 78.3421 44.0208 78.4793 44.564C78.6131 45.0942 78.8176 45.5444 79.0925 45.9144C79.3706 46.2887 79.6949 46.6049 80.065 46.8624C80.4346 47.1195 80.8513 47.3183 81.3146 47.4583C81.7973 47.6042 82.2615 47.713 82.7067 47.7844C83.1506 47.8556 83.5843 47.8913 84.0069 47.8913C84.9581 47.8913 85.7308 47.7005 86.3243 47.3189C86.6267 47.1245 86.896 46.9064 87.1319 46.6651C87.3674 46.4242 87.5712 46.1588 87.7428 45.8692C87.9193 45.5713 88.0702 45.2646 88.1952 44.9496C88.3207 44.6329 88.4221 44.304 88.499 43.9635C88.576 43.6226 88.6402 43.2838 88.6913 42.9478C88.7419 42.6163 88.7784 42.2955 88.8004 41.9855L88.8181 41.7353H90.0215V49.1136H84.0068C82.9784 49.1136 81.9153 48.95 80.8179 48.6232C80.2588 48.4566 79.7505 48.223 79.294 47.9226C78.8365 47.6217 78.4339 47.2554 78.0862 46.8239C77.3878 45.9569 77.0147 44.7748 76.9672 43.2782C76.9228 41.8818 77.3755 40.1103 78.3245 37.9644H78.2208L72.5436 49.1136H66.4691L83.5006 15.5977H73.9522L73.9521 15.5975ZM88.7992 31.8127C88.7992 30.5424 88.924 29.3127 89.1732 28.1243C89.4225 26.9357 89.7962 25.7913 90.294 24.6913C90.7913 23.5929 91.3754 22.5662 92.0462 21.6119C92.7169 20.658 93.4749 19.7756 94.3199 18.9652C95.1652 18.1547 96.0824 17.4313 97.0714 16.7952C98.0607 16.1588 99.1214 15.6094 100.253 15.1475C101.386 14.6853 102.548 14.3383 103.741 14.1067C104.933 13.8753 106.153 13.7594 107.399 13.7594C109.896 13.7594 112.267 14.2225 114.513 15.1485C115.634 15.611 116.686 16.1573 117.668 16.7865C118.651 17.4166 119.564 18.1308 120.409 18.9287C121.253 19.7266 122.013 20.5975 122.691 21.5411C123.367 22.4837 123.96 23.4985 124.469 24.5853C124.98 25.6766 125.363 26.8132 125.617 27.9947C125.872 29.1769 126 30.404 126 31.6756C126 32.946 125.875 34.1756 125.626 35.364C125.377 36.5525 125.003 37.6971 124.505 38.7969C124.008 39.8953 123.421 40.9193 122.743 41.8688C122.066 42.8187 121.298 43.6931 120.442 44.4918C119.588 45.2881 118.666 46.002 117.676 46.6331C116.687 47.2633 115.632 47.8095 114.513 48.2711C113.389 48.7345 112.235 49.0819 111.051 49.3128C109.864 49.5443 108.647 49.6602 107.4 49.6602C104.949 49.6602 102.602 49.2089 100.357 48.3064C99.2368 47.8559 98.182 47.3184 97.1934 46.6941C96.2038 46.0691 95.2813 45.3577 94.426 44.5603C93.5692 43.7613 92.7993 42.8904 92.1171 41.9479C91.4359 41.007 90.8402 39.9918 90.3305 38.9027C89.8197 37.8114 89.4368 36.6748 89.1819 35.4933C88.9269 34.3111 88.7994 33.084 88.7994 31.8124L88.7992 31.8127ZM94.8094 31.6758C94.8094 32.829 94.8854 33.9454 95.0371 35.0247C95.1888 36.1042 95.4169 37.1512 95.7212 38.1654C96.0245 39.1763 96.3927 40.1261 96.8255 41.0142C97.2578 41.9014 97.754 42.7259 98.3137 43.4869C98.8725 44.247 99.4849 44.9292 100.15 45.5332C100.815 46.1363 101.532 46.661 102.301 47.1069C103.067 47.551 103.875 47.884 104.722 48.1057C105.57 48.3273 106.462 48.4381 107.399 48.4381C109.267 48.4381 110.967 47.9943 112.497 47.1069C113.267 46.661 113.984 46.1363 114.648 45.5332C115.314 44.9292 115.926 44.247 116.485 43.4869C117.045 42.726 117.541 41.9015 117.973 41.0142C118.406 40.1261 118.774 39.1763 119.078 38.1654C119.382 37.1511 119.61 36.1041 119.762 35.0247C119.913 33.9454 119.989 32.8289 119.989 31.6758C119.989 30.5237 119.911 29.4078 119.753 28.3279C119.596 27.2482 119.359 26.2018 119.044 25.1894C118.728 24.1739 118.354 23.2259 117.923 22.3461C117.492 21.4674 117.001 20.6516 116.451 19.8988C115.902 19.1481 115.298 18.4745 114.641 17.8782C113.983 17.282 113.269 16.7601 112.498 16.313C111.732 15.8689 110.924 15.5359 110.077 15.3144C109.229 15.0927 108.336 14.9818 107.399 14.9818C105.532 14.9818 103.832 15.4256 102.301 16.313C101.53 16.7601 100.815 17.282 100.158 17.8782C99.5005 18.4745 98.897 19.1481 98.348 19.8988C97.2488 21.4019 96.384 23.1656 95.7545 25.1894C95.4395 26.2017 95.2033 27.2481 95.0458 28.3278C94.8883 29.4077 94.8095 30.5239 94.8095 31.6759L94.8094 31.6758Z" fill="url(#paint0_linear_13425_103539)"></path>
  <defs>
    <linearGradient id="paint0_linear_13425_103539" x1="64" y1="0.695312" x2="64" y2="49.6609" gradientUnits="userSpaceOnUse">
      <stop stop-color="#FFAC5D"></stop>
      <stop offset="1" stop-color="#F57D51"></stop>
    </linearGradient>
  </defs>
</svg>
