<?xml version="1.0" encoding="UTF-8"?>
<svg xmlns="http://www.w3.org/2000/svg" width="100" height="100" fill="none">
  <path d="M7.207 1.598C7.845 1.218 8.963.7 9.682.46l1.297-.44L49.903 0c38.264 0 38.943 0 40.22.38.719.22 1.837.719 2.495 1.118.66.38 1.657 1.18 2.196 1.779.559.58 1.278 1.598 1.637 2.237.34.64.778 1.779.938 2.518.28 1.199.32 4.835.22 62.197l-.46 1.199c-.239.66-.738 1.638-1.097 2.178-.36.54-.998 1.338-1.438 1.778-.439.44-1.237 1.099-1.796 1.458-.539.36-1.537.88-2.196 1.12-1.177.439-1.337.459-23.953.599l-7.086 9.69c-3.892 5.314-7.345 9.91-7.645 10.21-.498.48-.718.539-1.936.539-1.217 0-1.437-.06-1.936-.54-.3-.3-3.753-4.894-14.73-19.9l-11.378-.08c-11.258-.06-11.398-.08-12.576-.519-.658-.26-1.597-.719-2.096-1.039a12.746 12.746 0 0 1-1.776-1.438c-.48-.48-1.178-1.319-1.537-1.858-.38-.56-.878-1.539-1.577-3.397l-.04-30.43c-.06-26.932-.02-30.568.26-31.747.16-.76.558-1.858.878-2.458.34-.6 1.038-1.598 1.577-2.197.539-.6 1.497-1.419 2.136-1.799z" fill="#000"></path>
  <path d="M10.08 7.014c.379-.28.998-.619 1.397-.759.539-.18 9.401-.24 76.948-.16l.898.52c.5.3 1.138.879 1.438 1.298.3.44.638 1.24.758 1.779.14.679.2 10.13.16 30.17-.06 28.01-.08 29.19-.44 29.869-.199.38-.598.959-.898 1.259-.279.32-.878.779-1.317.999-.775.438-.977.44-24.956.637l-.274.002-.56.54c-.299.3-3.392 4.415-6.846 9.13-3.453 4.736-6.327 8.592-6.387 8.592-.06 0-2.934-3.856-6.387-8.592-3.454-4.715-6.548-8.83-7.406-9.67l-12.216-.1c-11.417-.1-12.256-.12-12.915-.48-.379-.2-.958-.599-1.257-.898-.32-.28-.778-.88-1.437-2.118V9.492l.499-.98c.28-.539.818-1.218 1.197-1.498z" fill="#625EA9"></path>
  <path d="M47.633 18.165c.2-.28.659-.68 1.018-.86.46-.219.958-.299 1.657-.239.559.04 1.217.26 1.497.48.28.22 1.776 2.777 3.493 6.034 1.657 3.096 3.134 5.714 3.294 5.814.16.08 2.994.62 6.287 1.179 3.793.639 6.208 1.138 6.587 1.358.32.2.799.68 1.058 1.06.28.419.44.978.44 1.478 0 .44-.16 1.059-.36 1.398-.2.34-2.316 2.598-4.69 5.035-4.113 4.216-4.332 4.495-4.233 5.095.04.36.46 3.277.899 6.453.778 5.515.818 5.834.519 6.654-.2.5-.58 1.019-.958 1.278-.36.24-1.058.48-1.557.52-.819.06-1.398-.18-6.627-2.737-3.174-1.559-5.809-2.818-5.889-2.818-.1 0-2.774 1.26-5.948 2.818-5.27 2.557-5.868 2.797-6.687 2.737-.499-.04-1.197-.28-1.537-.52-.399-.26-.778-.779-.978-1.278-.3-.82-.26-1.14.52-6.654.438-3.176.857-6.093.897-6.433.1-.62-.14-.9-4.411-5.295-3.234-3.336-4.551-4.855-4.71-5.354-.12-.4-.14-1.04-.06-1.499.08-.5.379-1.039.778-1.418.34-.34.978-.72 1.417-.84.44-.12 3.314-.639 6.387-1.158 3.993-.66 5.67-1.04 5.889-1.26.16-.179 1.497-2.617 2.974-5.414 1.477-2.797 2.835-5.334 3.034-5.614z" fill="#000"></path>
  <path d="M45.99 33.807c.199-.3 1.157-2.097 2.135-3.976v-.02c.978-1.878 1.856-3.436 1.956-3.436.1 0 .938 1.558 1.877 3.436.938 1.899 1.856 3.697 2.056 3.996.22.32.618.68.938.84.3.16 2.375.619 4.63 1.019 2.256.4 4.132.759 4.192.799.06.06-1.257 1.458-2.914 3.137-1.916 1.958-3.094 3.316-3.254 3.756-.2.6-.16 1.319.38 4.995.339 2.357.579 4.315.559 4.355-.04.02-1.797-.799-3.893-1.858-2.934-1.438-4.052-1.898-4.65-1.898-.6 0-1.717.46-4.632 1.898-2.115 1.06-3.872 1.878-3.912 1.858-.02-.04.22-1.998.56-4.355.518-3.657.578-4.396.378-4.995-.16-.46-1.297-1.778-3.253-3.756-1.657-1.659-2.974-3.077-2.915-3.117.06-.06 1.917-.42 4.152-.8 2.216-.399 4.292-.858 4.631-1.018.34-.16.759-.54.978-.86z" fill="#FBA929"></path>
</svg>
