<?xml version="1.0" encoding="UTF-8"?>
<svg xmlns="http://www.w3.org/2000/svg" width="100" height="100" viewBox="0 0 100 100" fill="none">
  <path d="M8.84359 8.21441C9.38789 7.65202 10.0902 7.14235 11.0383 6.68541L12.443 6H51.8607L53.1425 6.57996C53.8272 6.89631 54.7929 7.51142 55.2494 7.93321C55.8113 8.44288 56.338 9.18101 56.7419 10.0422C57.374 11.3075 57.3915 11.3954 57.4793 15.8418L58.7435 15.4024C59.4458 15.1564 60.7802 14.8225 61.6932 14.6819C62.8696 14.4886 63.9582 14.4358 65.3804 14.5061C66.5041 14.5589 68.0317 14.7522 68.8042 14.9455C69.5768 15.1564 70.7181 15.5255 71.3502 15.7715C71.9822 16.0351 73.1059 16.6151 73.8785 17.0545C74.6335 17.4938 75.9679 18.5307 76.8458 19.3567C77.7062 20.1827 78.7772 21.3251 79.1986 21.9051C79.6375 22.485 80.3047 23.5922 80.7086 24.3655C81.0948 25.1388 81.604 26.3163 81.8323 27.0017C82.0605 27.6695 82.359 28.9349 82.4995 29.8136C82.64 30.6748 82.7629 31.9402 82.7629 32.6256C82.7629 33.2934 82.6751 34.4006 82.5873 35.086C82.4819 35.7539 82.359 36.4569 82.3239 36.615C82.2361 36.9138 82.6048 36.9314 94 36.9314V56.615H91.1907V61.8347C91.1907 65.3847 91.1205 67.3004 90.98 67.7749C90.8396 68.1967 90.4182 68.8294 89.8739 69.3566C89.3471 69.9014 88.715 70.3232 88.2936 70.4638C87.7669 70.622 83.7286 70.6747 57.4793 70.6747L57.3915 87.8276L56.7419 89.1457C56.338 89.9893 55.8113 90.7274 55.2494 91.237C54.7929 91.6588 53.8272 92.2739 51.8607 93.1703H12.5308L11.2666 92.5903C10.5643 92.2739 9.59859 91.6588 9.14208 91.237C8.58022 90.7274 8.05348 89.9893 7 87.8276V11.3603L7.52674 10.2179C7.82523 9.58523 8.4222 8.68892 8.84359 8.21441Z" fill="black"></path>
  <path d="M9.93189 87.4584C9.82654 87.0542 9.72119 85.7009 9.72119 84.3477V81.9224H54.6697V84.3301C54.6697 85.7009 54.5644 87.0542 54.459 87.4584C54.3186 87.8802 53.8972 88.5129 53.3529 89.0401C52.8261 89.5849 52.194 90.0067 51.7727 90.1473C51.2459 90.3055 46.3648 90.3582 32.1955 90.3582C18.0261 90.3582 13.145 90.3055 12.6183 90.1473C12.1969 90.0067 11.5648 89.5849 11.038 89.0401C10.4937 88.5129 10.0724 87.8802 9.93189 87.4584Z" fill="#243E98"></path>
  <path d="M46.242 87.5463V86.1403V84.7344H49.0512V87.5463H46.242Z" fill="black"></path>
  <path d="M26.577 87.5463V86.1403V84.7344H37.8141V87.5463H26.577Z" fill="black"></path>
  <path d="M15.3398 87.5463V86.1403V84.7344H18.1491V87.5463H15.3398Z" fill="black"></path>
  <path d="M41.1858 67.3002C41.0278 67.1245 40.9751 65.8591 40.9751 62.0278V56.9663H88.0306V62.0102C88.0306 65.7536 87.9779 67.1245 87.8199 67.2826C87.6619 67.4584 82.7632 67.5111 64.5028 67.5111C46.102 67.5111 41.3614 67.4759 41.1858 67.3002Z" fill="#9B9EE3"></path>
  <path d="M68.3477 63.6627C68.3477 62.7488 68.4179 62.3621 68.6286 62.1688C68.8393 61.9755 69.2607 61.8876 70.1386 61.8876C70.9814 61.8876 71.4379 61.9755 71.6134 62.1512C71.789 62.327 71.8768 62.7839 71.8768 63.6451C71.8768 64.5414 71.8066 64.9456 71.5959 65.1389C71.4028 65.3147 70.9462 65.4026 70.1035 65.4026C69.2607 65.4026 68.8042 65.3147 68.6286 65.1389C68.453 64.9632 68.3652 64.4887 68.3477 63.6627Z" fill="black"></path>
  <path d="M82.3941 60.7628C82.3941 59.9193 82.4643 59.5502 82.675 59.3569C82.8857 59.1636 83.3071 59.0757 84.185 59.0757C85.0278 59.0757 85.4843 59.1636 85.6599 59.3393C85.8706 59.5502 85.9232 60.1302 85.9232 62.2391C85.9232 64.4008 85.8706 64.928 85.6423 65.1389C85.4141 65.3674 84.5362 65.4026 79.936 65.4026C75.3533 65.4026 74.4754 65.3674 74.2472 65.1389C74.0716 64.9632 73.9838 64.5062 73.9838 63.6451C73.9838 62.7488 74.054 62.3446 74.2647 62.1512C74.493 61.9404 75.2128 61.8876 82.4116 61.8876L82.3941 60.7628Z" fill="black"></path>
  <path d="M75.248 47.441C75.7572 47.0895 76.4946 46.4744 76.8809 46.0702L77.5656 45.3672H82.7628V48.1791H78.5489C76.2312 48.1791 74.335 48.1616 74.335 48.144C74.335 48.1088 74.7388 47.7925 75.248 47.441Z" fill="white"></path>
  <path d="M46.2422 48.1791V46.7732V45.3672H51.4218L52.1241 46.0702C52.5104 46.4744 53.2478 47.0895 53.757 47.441C54.2662 47.7925 54.67 48.1088 54.67 48.1264C54.67 48.1616 52.7738 48.1791 46.2422 48.1791Z" fill="white"></path>
  <path d="M38.165 53.4515V46.7731V40.0947H47.5586L48.6121 42.1861L46.1188 42.2037C44.1523 42.2037 43.5729 42.2564 43.3622 42.4673C43.1164 42.6958 43.0813 43.3285 43.0813 46.7731C43.0813 50.1299 43.134 50.868 43.3447 51.0789C43.5729 51.3074 46.1539 51.3425 64.4845 51.3425C82.8151 51.3425 85.3961 51.3074 85.6419 51.0789C85.8877 50.8504 85.9229 50.2177 85.9229 46.7731C85.9229 43.4163 85.8702 42.6782 85.6595 42.4673C85.4488 42.2564 84.8869 42.2037 82.938 42.2037C81.586 42.2037 80.4799 42.1685 80.4799 42.1158C80.4799 42.0631 80.6906 41.5886 81.4456 40.0947H90.8391V53.4515H38.165Z" fill="#9B9EE3"></path>
  <path d="M15.3398 73.4866V49.5851V25.6836H47.6466L47.2077 26.949C46.9618 27.652 46.6458 28.9525 46.5053 29.8136C46.3649 30.6748 46.242 31.9577 46.242 32.6256C46.242 33.2934 46.3298 34.4182 46.4175 35.086C46.5229 35.7539 46.6458 36.4569 46.6809 36.615C46.7687 36.9138 46.4 36.9314 35.0048 36.9314V56.615H37.8141V61.8346C37.8141 65.3847 37.8843 67.3004 38.0248 67.7749C38.1653 68.1967 38.5867 68.8294 39.131 69.3566C39.6577 69.9014 40.2898 70.3232 40.7112 70.4638C41.1677 70.5868 42.783 70.6747 49.0512 70.6747V73.4866H15.3398Z" fill="#243E98"></path>
  <path d="M22.3637 48.1792V46.7732V45.3673H25.173V48.355L26.086 48.7592C26.5952 48.9876 27.3151 49.4622 27.6663 49.8137C28.035 50.1651 28.5266 50.8681 28.7724 51.3426C29.0182 51.8172 29.264 52.5729 29.4747 53.8031H26.5777L26.4899 53.188C26.4372 52.8541 26.1914 52.3268 25.9104 52.0105C25.6471 51.7117 25.173 51.3602 24.8745 51.2196C24.5234 51.079 23.6103 50.9912 20.9591 50.9912L20.9942 52.9068C21.0469 54.5061 21.0995 54.9103 21.398 55.3145C21.5912 55.5606 21.9423 55.9296 22.1881 56.1229C22.4691 56.3338 23.1363 56.5096 23.9791 56.615C24.7692 56.7205 25.6998 56.9665 26.1738 57.2126C26.6479 57.441 27.2449 57.8277 27.5433 58.0562C27.8418 58.3022 28.351 59.0052 29.2991 60.7451L29.3869 67.8628H25.173V70.6748H22.3637V67.6871L21.4332 67.2829C20.9415 67.0544 20.2216 66.5799 19.8705 66.2284C19.5018 65.8769 19.0101 65.1915 18.7643 64.6994C18.5185 64.2249 18.2727 63.4692 18.062 62.2389H20.9591L21.0469 62.854C21.0995 63.188 21.3454 63.7152 21.6087 64.0315C21.8897 64.3303 22.3637 64.6818 22.6622 64.8224C23.0134 64.963 23.9264 65.0509 26.5777 65.0509L26.525 63.1352C26.4899 61.5359 26.4372 61.1317 26.1387 60.7275C25.9456 60.4815 25.5944 60.1124 25.3486 59.9191C25.0677 59.7082 24.4005 59.5324 23.5401 59.427C22.7676 59.3215 21.837 59.0755 21.3629 58.8294C20.8889 58.601 20.2919 58.2143 19.9934 57.9859C19.6949 57.7398 19.1857 57.0368 18.2376 55.2969L18.1498 48.1792H22.3637Z" fill="black"></path>
  <path d="M18.1498 42.5553V41.1494V39.7434H32.1962V42.5553H18.1498Z" fill="black"></path>
  <path d="M18.1498 36.9314V35.5255V34.1195H32.1962V36.9314H18.1498Z" fill="black"></path>
  <path d="M23.7684 31.3075V29.9016V28.4956H43.4334V31.3075H23.7684Z" fill="black"></path>
  <path d="M18.1498 31.3075V29.9016V28.4956H20.9591V31.3075H18.1498Z" fill="black"></path>
  <path d="M9.72119 79.1104V49.585V20.0596L51.4215 20.042L50.7719 20.7626C50.4031 21.1492 49.8939 21.7819 49.139 22.8891L12.5305 22.8715V76.2984H51.8604V70.6746H54.6697V79.1104H9.72119Z" fill="white"></path>
  <path d="M59.0067 18.2671C59.709 17.9859 60.9029 17.6696 61.6579 17.529H61.6404C62.3954 17.3884 63.6069 17.2654 64.3267 17.2654C65.0466 17.2478 66.3459 17.3708 67.2238 17.5114C68.0842 17.6696 69.401 18.0386 70.1209 18.3198C70.8408 18.6186 72.0347 19.2161 72.7546 19.6731C73.4745 20.13 74.6333 21.0439 75.3181 21.7293C76.0028 22.3971 76.9334 23.5219 77.3724 24.1898C77.8113 24.8576 78.3732 25.8945 78.6365 26.4745C78.8823 27.0544 79.2686 28.1616 79.4793 28.9349C79.7778 30.0421 79.848 30.833 79.848 32.7135C79.848 34.594 79.7778 35.3848 79.4793 36.492C79.2686 37.2653 78.8823 38.3725 78.6365 38.9525C78.3732 39.5324 77.7938 40.5693 77.3724 41.2372C76.9334 41.905 76.038 42.9946 75.4059 43.6273C74.7738 44.26 73.7027 45.1563 73.018 45.5957C72.3332 46.0175 71.3148 46.5974 70.7354 46.8435C70.156 47.1071 69.085 47.4762 68.3651 47.6695C67.6452 47.8628 66.2581 48.0561 65.2924 48.1264C64.0458 48.1967 63.0626 48.144 61.8686 47.9331C60.9556 47.7574 59.6036 47.3883 58.8838 47.1071C58.1639 46.8083 56.9699 46.2108 56.2501 45.7539C55.5302 45.2969 54.3362 44.3303 53.6164 43.6097C52.8789 42.8892 51.9132 41.6941 51.4743 40.9735C51.0178 40.253 50.4208 39.0579 50.1223 38.3374C49.8414 37.6168 49.4727 36.2987 49.3146 35.4375C49.1742 34.5764 49.0513 33.3462 49.0513 32.7135C49.0513 32.0808 49.1742 30.8857 49.3146 30.0421C49.4551 29.181 49.7887 27.9156 50.0696 27.2302C50.333 26.5272 50.9475 25.3145 51.4216 24.5413C51.8957 23.768 52.8789 22.5377 53.6164 21.8172C54.3362 21.079 55.5653 20.0949 56.3378 19.6204C57.1104 19.1458 58.3219 18.5307 59.0067 18.2671Z" fill="#9B9EE3"></path>
  <path d="M71.5256 34.1193V32.7133V31.3073H74.3349V34.1193H71.5256Z" fill="black"></path>
  <path d="M54.6699 34.1193V32.7133V31.3073H57.4792V34.1193H54.6699Z" fill="black"></path>
  <path d="M63.0978 22.8715V21.4655V20.0596H65.9071V23.0473L66.8201 23.4515C67.3293 23.6799 68.0491 24.1545 68.4003 24.506C68.769 24.8574 69.2606 25.5604 69.5065 26.035C69.7523 26.5095 69.9981 27.2652 70.2088 28.4954H67.3117L67.2239 27.8803C67.1712 27.5464 66.9254 27.0191 66.6445 26.7028C66.3811 26.404 65.9071 26.0525 65.6086 25.9119C65.2574 25.7713 64.3444 25.6835 61.6931 25.6835L61.7282 27.5991C61.7809 29.1984 61.8336 29.6026 62.1321 30.0068C62.3252 30.2529 62.6764 30.6219 62.9222 30.8153C63.2031 31.0262 63.8703 31.2019 64.7131 31.3073C65.5032 31.4128 66.4338 31.6588 66.9079 31.9049C67.3819 32.1334 67.9965 32.52 68.2774 32.7485C68.5583 32.9945 69.0851 33.6975 70.0332 35.4374L70.121 42.5551H65.9071V45.3671H63.0978V42.3794L62.1672 41.9752C61.6756 41.7467 60.9557 41.2722 60.6045 40.9207C60.2358 40.5692 59.7442 39.8838 59.4984 39.3917C59.2526 38.9172 59.0068 38.1615 58.7961 36.9312H61.6931L61.7809 37.5463C61.8336 37.8803 62.0794 38.4075 62.3428 38.7238C62.6237 39.0226 63.0978 39.3741 63.3963 39.5147C63.7474 39.6553 64.6604 39.7432 67.3117 39.7432L67.259 37.8275C67.2239 36.2282 67.1712 35.824 66.8727 35.4198C66.6796 35.1738 66.3284 34.8047 66.0826 34.6114C65.8017 34.4005 65.1345 34.2247 64.2742 34.1193C63.5016 34.0138 62.571 33.7678 62.097 33.5218C61.6229 33.2933 61.0084 32.9066 60.7274 32.6782C60.4465 32.4321 59.9198 31.7291 58.9716 29.9892L58.8838 22.8715H63.0978Z" fill="black"></path>
  <path d="M11.038 10.1301C11.5121 9.63802 12.1969 9.14593 12.5305 9.04049C12.9694 8.89989 18.8162 8.84716 32.1077 8.82959C46.3823 8.82959 51.2459 8.86474 51.7727 9.02291C52.194 9.16351 52.8261 9.5853 53.3529 10.1301C53.8972 10.6574 54.3186 11.29 54.459 11.7118C54.5644 12.116 54.6697 13.4693 54.6697 17.2478H9.72119V14.8401C9.72119 13.4693 9.82654 12.116 9.93189 11.7118C10.0724 11.29 10.4937 10.6574 11.038 10.1301Z" fill="#243E98"></path>
  <path d="M37.8145 14.436V13.03V11.624H40.6238V14.436H37.8145Z" fill="black"></path>
  <path d="M23.7681 14.436V13.03V11.624H35.0052V14.436H23.7681Z" fill="black"></path>
</svg>
