<?xml version="1.0" encoding="UTF-8"?>
<svg xmlns="http://www.w3.org/2000/svg" width="100" height="100" fill="none">
  <path d="M72.92 1.816c.45-.644 1.016-1.308 1.27-1.484.234-.176.702-.312 1.014-.332.352 0 1.133.293 1.953.762 1.327.761 1.386.78 1.952.468a28.61 28.61 0 0 0 1.308-.78c.41-.235 1.035-.45 1.367-.45.351 0 .84.156 1.093.352.234.175.761.82 1.913 2.48l1.66.02c.898.019 1.835.117 2.069.253.254.117.605.45.78.762.196.293.43 1.133.743 3.222l1.366.547c.762.313 1.562.782 1.796 1.055.293.312.45.742.45 1.23 0 .391-.176 1.23-.781 2.969l.976 1.074c.546.586 1.054 1.367 1.132 1.719.098.332.098.898 0 1.21-.078.333-.488.938-.898 1.368-.41.43-.84.918-.976 1.074-.176.234-.137.547.156 1.465.215.644.39 1.406.39 1.718 0 .293-.117.762-.273 1.075-.137.293-.566.683-.917.859-.371.195-1.074.488-1.562.683-.8.313-.898.41-.996 1.133-.098.723.137 1.191 3.612 7.226 2.03 3.555 4.06 7.07 4.51 7.812.429.762.76 1.504.722 1.66-.02.157-.195.45-.371.645-.195.195-.488.352-.664.332-.195 0-1.679-.742-3.28-1.66-1.913-1.094-2.948-1.582-3.006-1.406-.059.117-.137 1.738-.195 3.554-.079 2.305-.176 3.399-.352 3.574-.156.156-.546.235-1.62.137l-.059 25.585c-.039 23.905-.078 25.604-.39 25.936-.313.332-1.894.351-64.66.332l-.292-.43c-.235-.352-.293-1.152-.293-7.382h-4.1c-4.041 0-4.1 0-4.392-.43-.254-.39-.293-1.562-.293-14.804l-.547.117c-.293.059-1.581.371-2.87.703-1.815.45-2.44.528-2.792.371-.273-.136-.507-.507-.624-.996a45.713 45.713 0 0 1-.39-1.562c-.157-.605-.274-.762-.547-.684-.176.059-.645.059-1.016 0-.37-.058-.976-.351-1.327-.644-.547-.43-.722-.82-1.132-2.285-.254-.957-.469-2.188-.469-2.734-.02-.684.098-1.133.39-1.524.215-.293.625-.644.918-.8.312-.137 1.913-.586 3.573-.996 1.66-.41 3.084-.782 3.162-.86.079-.058-1.21-3.105-2.85-6.757a1450.07 1450.07 0 0 1-4.217-9.472c-.664-1.563-1.327-3.32-1.484-3.907-.156-.585-.292-1.757-.292-2.577.02-.84.156-2.07.331-2.735.176-.683.528-1.66.8-2.207a13.72 13.72 0 0 1 1.211-1.855c.39-.469.918-1.074 1.191-1.328.274-.254.918-.762 1.464-1.113.528-.352 1.504-.82 2.148-1.035.644-.215 1.66-.45 2.245-.508.586-.059 1.542-.059 3.124.176V18.358c0-11.6.039-13.436.585-14.257h52.126l.351-.488c.215-.254.703-.566 1.133-.664.41-.117 1.288-.137 3.104.04l.84-1.173z" fill="#000"></path>
  <path d="M15.037 73.198c2.909-.742 7.418-1.855 9.995-2.48 2.577-.645 4.803-1.172 4.94-1.172.117-.02.292.215.351.508.059.312.078.566.04.586-.04.02-4.628 1.152-10.211 2.5C14.568 74.507 10 75.58 9.98 75.541c-.02-.04-.078-.274-.273-1.035l5.33-1.309zm-9.491-4.1c.078-.078 5.856-1.543 12.846-3.261 6.97-1.719 12.826-3.106 12.982-3.086.176.02.41.508.625 1.309.195.703.332 1.484.312 1.738-.058.449-.507.566-12.748 3.554-6.99 1.7-12.866 3.086-13.08 3.047-.313-.04-.45-.332-.742-1.602-.195-.859-.274-1.62-.195-1.699zM8.85 35.016c.645-.351 1.543-.722 2.03-.82.489-.117 1.543-.176 2.343-.137 1.152.04 1.738.196 2.773.664.742.352 1.718 1.016 2.206 1.504s1.23 1.582 1.66 2.441c.624 1.25.82 1.895.975 3.282.098.937.235 2.363.293 3.163.059.801.274 4.844.488 8.984.215 4.14.39 7.676.39 7.871 0 .273-.702.488-4.158 1.308-2.264.547-4.197.918-4.275.84-.078-.097-1.952-4.199-4.158-9.14-2.206-4.941-4.14-9.413-4.295-9.96a21.59 21.59 0 0 1-.39-1.953c-.06-.528-.02-1.563.077-2.285.117-.742.45-1.797.742-2.344.273-.566.879-1.426 1.328-1.914.449-.488 1.347-1.152 1.971-1.504z" fill="#FBA929"></path>
  <path d="M80.064 91.89c.273-.254.313-3.222.332-29.51.02-21.678.078-29.198.254-29.12.117.04 1.6 2.48 6.384 10.781l-.02 53.806H25.713v-5.664h27.02c23.759 0 27.058-.039 27.331-.293z" fill="#625EA9"></path>
  <path d="M86.33 29.94c.742.058 1.504.039 1.66-.059.156-.098.351-.176.449-.176.078-.02 1.328 2.07 2.792 4.629 1.464 2.539 2.713 4.707 2.791 4.824.06.097-.527-.156-1.308-.586-1.366-.762-1.444-.84-2.479-2.676-.78-1.386-1.23-1.972-1.6-2.129-.43-.156-.665-.156-1.035.06-.274.155-.567.487-.664.741-.156.41 0 .82.917 2.5.996 1.777 1.113 2.11 1.113 3.105 0 .625-.058 1.348-.117 1.621-.117.43-.234.293-1.132-1.269-.547-.957-1.835-3.183-4.705-8.105l.507-.547c.274-.293.723-.879 1.445-2.05l1.367.117zm-23.304 9.218c.078-.117 1.328-2.285 2.792-4.824l.012-.021c2.585-4.47 2.663-4.607 3.13-4.412.274.098 1.055.117 3.164-.117l.332.625c.175.351.585.957 1.483 2.011l-1.64 2.871c-.898 1.602-2.147 3.79-2.772 4.883-.644 1.094-1.21 2.012-1.288 2.012-.098 0-.157-.703-.157-1.563 0-1.543.02-1.601 1.113-3.574.918-1.66 1.074-2.07.918-2.48-.098-.254-.39-.586-.664-.742-.37-.215-.605-.215-1.015-.059-.39.156-.84.742-1.62 2.11-1.035 1.855-1.113 1.933-2.48 2.694-.78.43-1.367.684-1.308.586z" fill="#FBA929"></path>
  <path d="M16.907 32.323l.02-13.026V6.25H67.1l-.04.43c-.038.313-.37.547-1.425.957-.761.313-1.561.781-1.796 1.055-.292.312-.449.742-.449 1.21 0 .41.176 1.27.781 3.086l-.878.88c-.488.487-.996 1.23-1.152 1.66-.176.546-.215.956-.098 1.367.117.332.41.878.664 1.23.273.332.644.703.84.8.175.079.39.274.468.43.059.157-.039.762-.254 1.348-.195.586-.351 1.387-.37 1.758 0 .37.156.937.35 1.269.196.332.704.723 1.133.918.41.176 1.054.43 1.406.586.351.137.683.39.722.547.059.156.098.547.117.879.04.449-1.015 2.421-4.314 8.105-2.402 4.14-4.393 7.734-4.452 8.007-.039.293.078.625.293.84.196.195.488.351.645.351.156-.02 1.64-.761 3.28-1.68 1.62-.917 3.006-1.66 3.064-1.66.059 0 .098 1.465.098 3.262 0 2.246.078 3.438.254 3.77.175.351.43.507.878.546.488.02.703-.078.977-.488.195-.312 2.284-3.886 4.626-7.968 2.343-4.082 4.51-7.656 4.803-7.949.312-.313.644-.547.761-.547.137 0 .196 9.921.196 58.786H16.926V83.2c0-3.75.04-6.836.098-6.836s3.553-.84 7.75-1.875c5.525-1.328 7.79-1.953 8.063-2.226.39-.391.39-.41.04-1.797-.176-.781-.333-1.543-.333-1.68 0-.117.215-.273.489-.332.273-.058.741-.37 1.073-.683.332-.313.645-.88.703-1.211.059-.39-.097-1.445-.41-2.695-.293-1.133-.683-2.266-.859-2.54-.195-.273-.644-.605-1.015-.761-.45-.195-.976-.234-1.64-.156-.527.078-2.187.43-6.325 1.406l-.098-.781c-.058-.43-.332-5.039-.625-10.254-.312-5.8-.624-9.882-.78-10.546-.157-.586-.625-1.777-1.055-2.636-.41-.86-1.19-2.032-1.698-2.618-.508-.566-1.484-1.406-3.397-2.656z" fill="#9391DF"></path>
  <path d="M23.72 81.244c-.117-.351-.078-.625.137-.918l.293-.449h24.56c19.541 0 24.598.04 24.793.235.137.136.234.546.234.878 0 .45-.117.703-.39.84-.254.137-8.844.195-24.599.195-13.314 0-24.344-.058-24.54-.156-.175-.078-.39-.351-.488-.625zm17.707-6.64c-.039-.215.04-.605.215-.879l.293-.488h15.657c12.377 0 15.716.058 15.911.254.137.136.254.488.254.78-.02.333-.176.645-.45.84-.39.255-2.42.294-15.617.294-9.664 0-15.365-.078-15.677-.215-.254-.098-.527-.352-.586-.586zm-.097-7.168c.02-.136.195-.41.41-.644.37-.371.644-.39 15.813-.39 9.879 0 15.56.077 15.813.195.254.136.39.41.39.84 0 .35-.116.742-.233.878-.196.195-3.632.235-31.588.235l-.313-.43c-.156-.234-.292-.547-.292-.684zm0-6.542c-.02-.137.117-.45.293-.684l.331-.449h31.412l.293.45c.195.312.234.585.117.917-.097.273-.312.566-.488.645-.175.078-7.262.136-15.735.136-15.17 0-15.442 0-15.813-.39-.215-.215-.41-.489-.41-.625zm-11.343-6.816c0-.176.137-.45.312-.625.293-.274 1.582-.313 11.245-.313 9.45 0 10.953.04 11.206.293.157.176.293.469.293.684 0 .215-.195.566-.41.8-.41.372-.605.391-11.245.332h-.114c-10.469-.058-10.722-.06-10.994-.449-.156-.214-.293-.527-.293-.722zm.02-6.64c0-.196.175-.528.39-.743.39-.37.644-.39 11.128-.39s10.757.02 11.128.39c.215.215.39.547.39.742 0 .176-.156.489-.351.684-.313.332-1.015.351-11.167.332-9.976 0-10.855-.04-11.187-.332-.195-.195-.332-.508-.332-.684zm.195-6.23c-.274-.47-.254-.567.058-1.036l.332-.508 10.894.02c10.035 0 10.894.02 11.225.332.196.195.352.469.352.625 0 .176-.156.488-.703 1.191l-21.846-.117-.312-.508zm-6.54-6.856c-.04-.195.058-.566.214-.84l.293-.488h33.58l.292.488c.156.274.254.645.195.84-.039.176-.312.45-.585.586-.39.176-4.14.234-16.692.234-12.573 0-16.321-.058-16.712-.234-.273-.137-.527-.41-.585-.586zm.097-7.402c.117-.293.313-.566.45-.625.136-.058 7.652-.117 16.691-.117 9.059-.02 16.594.04 16.77.137.195.078.41.351.508.625.117.351.078.625-.43 1.367H24.17l-.293-.43c-.234-.332-.254-.566-.117-.957zm-.175-9.55c0-3.262.019-3.535.39-3.906.37-.371.644-.39 12.202-.39 11.557 0 11.81.019 12.201.39.352.371.39.644.39 3.867 0 2.754-.058 3.554-.585 4.336H36.273c-11.655 0-11.928 0-12.299-.391-.371-.352-.39-.645-.39-3.906z" fill="#000"></path>
  <path d="M26.101 19.14V15.626H46.21v3.516H26.101zm47.72-14.61c.292-.293.76-.859 1.014-1.25v-.02c.254-.39.508-.722.566-.722.059 0 .567.293 1.113.625.8.508 1.25.645 2.011.645.761 0 1.21-.137 3.124-1.309l.351.45c.176.253.625.82.976 1.23.332.43.918.898 1.25 1.035.468.176 1.015.215 3.182-.04v.587c0 .312.137 1.054.293 1.601.175.645.507 1.211.82 1.485.312.253 1.015.605 1.561.78.567.177 1.074.391 1.133.47.039.097-.098.722-.332 1.425-.273.899-.352 1.465-.254 1.953.098.43.508 1.055 1.093 1.66.528.528.957 1.035.957 1.114 0 .097-.449.625-.976 1.171-.742.782-1.015 1.23-1.093 1.817-.079.527.02 1.152.293 1.953.234.644.41 1.191.41 1.21 0 .04-.547.255-1.211.489-.683.273-1.406.703-1.718 1.035-.293.332-.625 1.035-.742 1.601-.136.567-.234 1.211-.234 1.426 0 .371-.098.39-1.328.273-1.054-.117-1.444-.058-2.07.235-.409.195-.956.625-1.19.957-.254.332-.566.84-.703 1.133-.156.293-.41.547-.566.527-.156 0-.644-.254-1.074-.566-.43-.313-1.054-.625-1.366-.704-.313-.078-.86-.097-1.172-.02-.312.06-1.015.391-2.498 1.388l-.313-.43a32.396 32.396 0 0 1-.82-1.172c-.273-.41-.859-.898-1.269-1.113-.624-.293-1.015-.332-3.397-.117v-.645c0-.332-.097-.976-.215-1.406-.117-.43-.488-1.074-.82-1.426-.37-.37-1.054-.78-1.659-.976-.625-.195-1.015-.45-1.015-.625 0-.156.137-.742.312-1.27.215-.625.293-1.25.195-1.757-.078-.586-.37-1.055-1.093-1.817-.527-.547-.976-1.054-.976-1.113 0-.058.45-.566.976-1.152.703-.762 1.015-1.29 1.113-1.816.059-.47-.02-1.153-.234-1.817-.176-.586-.274-1.191-.215-1.328.059-.117.527-.37 1.035-.527.527-.156 1.23-.567 1.581-.918.527-.547.683-.879 1.113-3.516l1.171.137c.703.078 1.406.04 1.757-.097.313-.118.84-.45 1.152-.743z" fill="#FBA929"></path>
  <path d="M73.252 6.425c.645-.312 1.836-.742 2.636-.937.8-.215 1.952-.391 2.538-.41.586 0 1.776.175 2.635.39.86.215 2.128.684 2.831 1.016.8.39 1.738 1.113 2.538 1.914.8.78 1.523 1.738 1.913 2.539.332.703.82 2.011 1.035 2.93.332 1.269.39 1.991.313 3.124-.06.8-.313 2.09-.586 2.832-.254.742-.8 1.894-1.23 2.52-.41.644-1.289 1.66-1.952 2.245-.664.606-1.718 1.348-2.343 1.66-.625.313-1.816.723-2.616.918-.8.215-1.894.371-2.44.371-.528 0-1.68-.175-2.538-.39-.86-.215-2.03-.645-2.617-.938-.585-.293-1.58-1.015-2.245-1.62-.663-.587-1.542-1.602-1.952-2.247-.43-.625-.976-1.777-1.23-2.52-.273-.741-.527-2.03-.585-2.831-.079-1.133-.02-1.855.312-3.125.215-.918.703-2.226 1.035-2.93.416-.846 1.086-1.712 2.01-2.597.82-.8 1.835-1.582 2.538-1.914z" fill="#000"></path>
  <path d="M75.594 8.047c.644-.234 1.386-.449 1.66-.508.273-.039 1.054-.058 1.757 0 .702.04 1.757.235 2.342.43.586.195 1.465.625 1.953.957.488.332 1.269 1.016 1.757 1.543.468.527 1.112 1.484 1.405 2.129.293.644.644 1.699.762 2.343.136.82.136 1.543 0 2.442-.118.703-.352 1.66-.508 2.148-.176.488-.644 1.348-1.035 1.934-.39.585-1.034 1.288-1.405 1.6-.371.294-1.289.821-2.05 1.192-1.308.625-1.464.645-3.729.645-2.304 0-2.362-.02-3.807-.723-.78-.39-1.874-1.152-2.401-1.66-.566-.566-1.21-1.484-1.601-2.304-.39-.82-.722-1.914-.84-2.735-.117-.879-.117-1.796 0-2.539.098-.644.43-1.699.723-2.343.312-.645.937-1.602 1.405-2.129.489-.527 1.23-1.191 1.66-1.484.43-.293 1.308-.723 1.952-.938z" fill="#625EA9"></path>
  <path d="M76.67 12.07c.37-.762.839-1.602 1.034-1.856.195-.254.566-.45.84-.45.273 0 .624.196.8.45.195.254.663 1.094 1.718 3.242l1.66.234c.917.117 1.873.332 2.127.489.352.195.469.43.45.82-.04.37-.45.937-2.754 3.261l.293 1.465c.137.8.274 1.7.274 2.012 0 .351-.157.644-.527.879-.5.327-.527.313-3.813-1.443l-.15-.08-1.816.898c-1.523.761-1.874.859-2.245.683-.235-.117-.488-.332-.547-.449-.059-.137.039-1.113.508-4.062l-1.367-1.309C72.101 15.84 71.769 15.41 71.788 15c0-.352.157-.645.43-.82.254-.157 1.19-.372 3.768-.723l.683-1.387z" fill="#000"></path>
  <path d="M77.879 15.08c.195-.294.41-.704.488-.919.098-.351.137-.332.39.196.176.332.45.742.625.937.176.195.625.39.996.469.37.058.78.156.879.195.117.059-.118.41-.489.781-.605.586-.683.762-.624 1.543.039.742 0 .84-.293.742a9.61 9.61 0 0 1-.84-.312c-.351-.137-.703-.098-1.269.136-.43.157-.8.293-.82.293-.039 0-.039-.39 0-.878.04-.762-.039-.938-.644-1.524-.37-.37-.586-.722-.488-.781.117-.04.527-.137.957-.215.494-.091.872-.312 1.132-.664z" fill="#FBA929"></path>
</svg>
