<?xml version="1.0" encoding="UTF-8"?>
<svg xmlns="http://www.w3.org/2000/svg" width="100" height="100" viewBox="0 0 100 100" fill="none">
  <path d="M5.4846 5.24042C6.25789 4.50719 7.13292 3.91653 7.9876 3.57029L9.31032 3.02037L88.3685 3L88.7754 3.54992C89.0196 3.8758 89.2028 4.34425 89.2028 4.62939C89.2028 4.91454 89.0196 5.36262 88.4092 6.15695L9.71732 6.36063L8.90333 6.80871C8.45564 7.03275 7.84515 7.5012 7.56026 7.82708C7.25502 8.13259 6.86837 8.66215 6.70558 9.00839C6.54278 9.33427 6.33928 9.96566 6.15614 11.147L94.0053 11.2488L95.0024 11.8598C95.674 12.2876 96.2234 12.8375 97.3223 14.7113L97.2205 76.2617L96.61 77.2393C96.2234 77.8707 95.6129 78.4817 94.0053 79.4797L60.2453 79.6834L59.7976 80.8036C59.5331 81.4146 58.9633 82.657 58.5156 83.5532C58.0679 84.4494 57.1115 85.9566 56.3993 86.9138C55.7074 87.8711 54.466 89.2765 53.6724 90.0708C52.8788 90.8651 51.3933 92.0668 50.3961 92.7389C49.399 93.4314 47.8524 94.348 46.9571 94.796C46.0617 95.2441 44.5965 95.8551 43.7011 96.1403C42.8057 96.4458 41.1574 96.8735 40.0382 97.0976C38.6341 97.3827 37.2096 97.5049 35.4595 97.5049C33.6891 97.5049 32.3054 97.3827 30.8809 97.0976C29.7617 96.8531 28.0116 96.4051 27.0145 96.0588C26.0173 95.7126 24.3487 95.0201 23.3515 94.4905C22.3341 93.961 20.8078 93.0037 19.9532 92.3723C19.0781 91.7206 17.7961 90.6207 17.0839 89.9282C16.392 89.2154 15.2931 87.9526 14.6623 87.1175C14.0314 86.2824 13.1767 84.9993 12.7698 84.2661C12.3628 83.5328 11.7116 82.209 10.6737 79.6834L8.43529 79.5816C6.42068 79.4797 6.13579 79.4186 5.24041 78.8687C4.60957 78.4817 3.99908 77.8707 3.00195 76.2617V9.00839L3.65314 7.68451C4.06013 6.80871 4.69097 5.97365 5.4846 5.24042Z" fill="black"></path>
  <path d="M28.4399 49.7642C29.3353 49.4791 30.8004 49.1125 31.6958 48.9495C32.5912 48.7866 34.1988 48.644 35.257 48.644C36.3152 48.6237 38.0245 48.7662 39.0217 48.9292C40.0188 49.0921 41.5857 49.4587 42.4811 49.7439C43.3765 50.0494 45.0044 50.7622 46.1237 51.3325C47.2225 51.9232 48.8302 52.9416 49.6848 53.6341C50.5395 54.3062 51.7402 55.4671 52.371 56.18C53.0018 56.8928 53.8769 58.0334 54.3245 58.7056C54.7926 59.3777 55.4641 60.559 55.8508 61.3533C56.2578 62.1476 56.7665 63.3697 57.0107 64.1029C57.2752 64.8361 57.6008 66.0582 57.7636 66.8525C57.9264 67.6469 58.1299 69.1948 58.191 70.315C58.252 71.4556 58.191 73.1461 58.0689 74.1848C57.9264 75.1828 57.6415 76.7104 57.4177 77.5454C57.1938 78.3805 56.4613 80.1728 55.8101 81.5171C55.0368 83.065 54.1007 84.5926 53.2257 85.672C52.4727 86.6293 51.2111 87.9532 50.4174 88.6253C49.6441 89.2974 48.4842 90.1529 47.8737 90.5602C47.2632 90.9472 45.9202 91.6601 44.923 92.1285C43.9259 92.597 42.3997 93.1673 41.5654 93.4117C40.731 93.6357 39.2048 93.9208 38.2077 94.0634C37.1698 94.1856 35.4808 94.2467 34.3413 94.1856C33.222 94.1245 31.6551 93.9208 30.8818 93.7579C30.1085 93.595 28.8672 93.2691 28.1346 93.0043C27.402 92.7599 26.1607 92.2507 25.3874 91.8434C24.6142 91.4564 23.4135 90.7843 22.742 90.3158C22.0705 89.8677 20.9309 88.9919 20.2186 88.3605C19.5064 87.7291 18.3465 86.5275 17.6749 85.672C16.9831 84.8166 15.9656 83.2076 15.3754 82.1077C14.8057 80.9875 14.0934 79.3581 13.7882 78.462C13.5033 77.5658 13.137 75.9975 12.9742 74.9995C12.8114 74.0015 12.6689 72.3925 12.6689 71.4352C12.6689 70.4779 12.8114 68.8689 12.9742 67.8709C13.1573 66.8729 13.5236 65.3046 13.8085 64.4084C14.1138 63.5123 14.7243 62.0051 15.2126 61.0478C15.6807 60.0905 16.6371 58.5833 17.3087 57.6872C17.9802 56.791 19.018 55.5893 19.6082 55.019C20.2186 54.4488 21.2972 53.5526 22.0298 53.023C22.7623 52.4731 24.1258 51.6584 25.0822 51.1696C26.0386 50.6808 27.5445 50.0494 28.4399 49.7642Z" fill="#9B9EE3"></path>
  <path d="M41.7654 56.7085C42.2944 56.1382 43.027 55.6087 43.4951 55.4457C43.9631 55.2624 44.8178 55.181 45.53 55.2217C46.2016 55.2624 47.0155 55.4254 47.3615 55.6087C47.7074 55.7716 48.3179 56.2604 48.7453 56.7085C49.193 57.1566 49.6406 57.9102 49.8441 58.5009C50.0476 59.1323 50.129 59.8655 50.0476 60.4358C50.0069 60.945 49.7831 61.6782 49.5999 62.0652C49.3965 62.4521 49.0098 63.0428 48.7046 63.3483C48.4197 63.6742 47.8092 64.1223 47.3615 64.3667C46.7714 64.6722 46.1812 64.7944 45.2248 64.7944C44.3294 64.7944 43.6579 64.6722 43.1898 64.4278C42.8032 64.2241 42.152 63.7353 41.7654 63.3483C41.277 62.8595 40.9514 62.6762 40.7479 62.778C40.5851 62.8799 37.4919 64.8148 33.8901 67.0959C30.2678 69.3567 27.3172 71.312 27.3172 71.4342C27.3172 71.5564 30.2678 73.5117 33.8697 75.7724C37.4919 78.0536 40.5851 79.9885 40.7479 80.0903C40.9514 80.1922 41.277 80.0089 41.7654 79.5201C42.152 79.1331 42.8032 78.6443 43.1898 78.4406C43.6579 78.1962 44.3294 78.074 45.2248 78.074C46.1812 78.074 46.7714 78.1962 47.3615 78.5017C47.8092 78.7461 48.4197 79.1942 48.7249 79.5201C49.0302 79.8256 49.4575 80.4977 49.6813 81.0069C49.9052 81.5161 50.1087 82.29 50.1087 82.7381C50.1087 83.1862 49.9866 83.9602 49.8034 84.4693C49.6406 84.9785 49.193 85.7321 48.786 86.1395C48.3993 86.5672 47.7685 87.056 47.4022 87.2393C47.0562 87.4226 46.283 87.6263 45.7335 87.6874C45.1027 87.7485 44.3294 87.667 43.6986 87.4634C42.966 87.2393 42.4165 86.8523 41.7654 86.1598C41.2566 85.6099 40.7682 84.8563 40.6461 84.4693C40.463 83.8583 39.71 83.3288 32.8115 78.9294C28.6195 76.2613 25.1397 74.0616 25.0787 74.0616C25.0176 74.0819 24.7124 74.3671 24.3665 74.7133C24.0205 75.0596 23.41 75.5077 22.9827 75.7317C22.5757 75.9354 21.8431 76.1798 21.3547 76.2409C20.846 76.3224 20.1134 76.2816 19.4826 76.0983C18.8721 75.915 18.1191 75.4873 17.5494 74.9781C16.9389 74.4282 16.5115 73.8172 16.2673 73.145C16.0842 72.5951 15.9214 71.8212 15.9214 71.4342C15.9214 71.0472 16.0842 70.2732 16.2673 69.7233C16.5115 69.0512 16.9389 68.4402 17.5494 67.8902C18.1191 67.3811 18.8721 66.9533 19.4826 66.77C20.1134 66.5867 20.846 66.546 21.3547 66.6275C21.8431 66.6886 22.535 66.8922 22.8809 67.0756C23.2472 67.2589 23.8984 67.7477 25.0583 68.8883L25.9334 68.3383C26.4218 68.0328 29.8812 65.8331 33.6255 63.4298C39.7711 59.4989 40.463 59.01 40.6461 58.399C40.7682 58.012 41.2566 57.2584 41.7654 56.7085Z" fill="black"></path>
  <path d="M43.6007 82.8413C43.621 82.4543 43.8245 82.0062 44.1094 81.7211C44.4146 81.3952 44.8216 81.2119 45.2286 81.2119C45.6153 81.2119 46.0223 81.3952 46.3478 81.7211C46.6734 82.047 46.8566 82.4543 46.8566 82.8413C46.8566 83.2079 46.6734 83.656 46.3478 83.9615C46.0426 84.2874 45.6356 84.4707 45.2286 84.4707C44.842 84.4707 44.435 84.2874 44.1094 83.9615C43.7838 83.6356 43.6007 83.2283 43.6007 82.8413Z" fill="white"></path>
  <path d="M19.1812 71.4355C19.2015 71.0486 19.405 70.6005 19.6899 70.3153C19.9951 69.9895 20.4021 69.8062 20.8091 69.8062C21.1958 69.8062 21.6028 69.9895 21.9283 70.3153C22.2539 70.6412 22.4371 71.0486 22.4371 71.4355C22.4371 71.8022 22.2539 72.2502 21.9283 72.5558C21.6231 72.8816 21.2161 73.0649 20.8091 73.0649C20.4225 73.0649 20.0155 72.8816 19.6899 72.5558C19.3643 72.2299 19.1812 71.8225 19.1812 71.4355Z" fill="white"></path>
  <path d="M43.6007 60.0298C43.621 59.6428 43.8245 59.1947 44.1094 58.9096C44.4146 58.5837 44.8216 58.4004 45.2286 58.4004C45.6153 58.4004 46.0223 58.5837 46.3478 58.9096C46.6734 59.2355 46.8566 59.6428 46.8566 60.0298C46.8566 60.3964 46.6734 60.8445 46.3478 61.15C46.0426 61.4759 45.6356 61.6592 45.2286 61.6592C44.842 61.6592 44.435 61.4759 44.1094 61.15C43.7838 60.8241 43.6007 60.4168 43.6007 60.0298Z" fill="white"></path>
  <path d="M6.15674 75.3044V44.8551V14.4058H93.0495L94.0669 15.4241V75.3044L93.0698 76.3228H61.1006L61.2431 74.9581C61.3448 74.1842 61.4059 72.4326 61.3855 71.0272C61.3855 69.6219 61.2634 67.7888 61.121 66.9537C60.9582 66.1187 60.5512 64.5097 60.1849 63.3894C59.8186 62.2692 59.1878 60.6602 58.7604 59.8251C58.3331 58.9901 57.5394 57.6051 56.9697 56.77C56.3999 55.935 54.9754 54.2648 53.7951 53.0835C52.6148 51.9022 50.9462 50.4765 50.1118 49.9062C49.2775 49.3359 47.8937 48.5416 47.0594 48.1139C46.2251 47.6862 44.6175 47.0548 43.4982 46.6678C42.379 46.3012 40.5068 45.8531 39.3266 45.6901C38.1463 45.5068 36.4166 45.3643 35.4601 45.3643C34.5037 45.3643 32.774 45.5068 31.5937 45.6901C30.4134 45.8531 28.5413 46.3012 27.4221 46.6678C26.3028 47.0548 24.6952 47.6862 23.8609 48.1139C23.0265 48.5416 21.6428 49.3359 20.8084 49.9062C19.9741 50.4765 18.3054 51.9022 17.1252 53.0835C15.9449 54.2648 14.5204 55.935 13.9506 56.77C13.3808 57.6051 12.5872 58.9901 12.1599 59.8251C11.7325 60.6602 11.1017 62.2692 10.715 63.3894C10.3488 64.5097 9.90106 66.4853 9.69757 67.7684C9.45337 69.4589 9.39232 70.7625 9.49407 72.453C9.55512 73.7361 9.67722 75.1415 9.92141 76.3228H8.55799C7.35736 76.3228 7.11317 76.2617 6.15674 75.3044Z" fill="#243E98"></path>
  <path d="M84.9689 67.7486C85.2334 67.3819 85.7625 66.9746 86.1492 66.832C86.5358 66.6894 87.1463 66.5672 87.4922 66.5469C87.8585 66.5469 88.469 66.6691 88.815 66.8117C89.1813 66.9746 89.7307 67.3819 90.0359 67.7282C90.3615 68.0948 90.6668 68.7262 90.7278 69.1539C90.7889 69.5613 90.7889 70.2334 90.7075 70.6204C90.6261 71.0277 90.2394 71.6387 89.8121 72.0665C89.3237 72.5689 88.8082 72.8676 88.2655 72.9626C87.8178 73.0441 87.1259 73.0441 86.7393 72.9626C86.3323 72.8812 85.7218 72.4942 85.2945 72.0665C84.7925 71.5776 84.4941 71.0617 84.3991 70.5185C84.3177 70.0704 84.3177 69.3983 84.3788 69.0521C84.4398 68.6855 84.7247 68.0948 84.9689 67.7486Z" fill="black"></path>
  <path d="M66.4915 38.7861C67.0613 38.3787 68.0584 37.8492 68.7299 37.6251C69.8695 37.2585 70.6631 37.2381 89.7917 37.2178L90.8092 38.2361V52.4933L89.8121 53.5117H79.9832C70.7242 53.5117 70.073 53.4914 68.8317 53.1044C68.0991 52.8803 67.0613 52.3508 66.4915 51.9434C65.942 51.5157 65.1484 50.7214 64.7211 50.1511C64.2937 49.5808 63.7646 48.5421 63.5408 47.8088C63.3169 47.0756 63.1338 45.9758 63.1338 45.3647C63.1338 44.7537 63.3169 43.6539 63.5408 42.9207C63.7646 42.1874 64.2937 41.1487 64.7211 40.5784C65.1484 40.0285 65.942 39.2138 66.4915 38.7861Z" fill="black"></path>
  <path d="M67.912 42.0041C68.4614 41.4338 69.255 40.8635 69.6417 40.7413C70.1097 40.5988 73.3046 40.5173 87.5493 40.4766V50.2529H79.0635C73.0401 50.2529 70.3132 50.1715 69.7434 50.0085C69.255 49.8456 68.5224 49.3568 67.912 48.7254C67.2811 48.1144 66.7927 47.3811 66.6299 46.8923C66.5078 46.4442 66.3857 45.7517 66.3857 45.3647C66.3857 44.9778 66.5078 44.2853 66.6299 43.8372C66.7927 43.3484 67.2811 42.6151 67.912 42.0041Z" fill="#9B9EE3"></path>
  <path d="M70.0937 43.9376C70.4396 43.2654 70.8059 42.8988 71.4775 42.5526C71.9862 42.3082 72.617 42.1045 72.9019 42.1045C73.1868 42.1045 73.8177 42.3082 74.3264 42.5526C74.9979 42.8988 75.3642 43.2654 75.7102 43.9376C75.9544 44.4467 76.1579 45.0781 76.1579 45.3633C76.1579 45.6484 75.9544 46.2798 75.7102 46.789C75.3642 47.4611 74.9979 47.8277 74.3264 48.174C73.8177 48.4184 73.1868 48.6221 72.9019 48.6221C72.617 48.6221 71.9862 48.4184 71.4775 48.174C70.8059 47.8277 70.4396 47.4611 70.0937 46.789C69.8495 46.2798 69.646 45.6484 69.646 45.3633C69.646 45.0781 69.8495 44.4467 70.0937 43.9376Z" fill="black"></path>
  <path d="M84.9718 18.8667C85.2363 18.5001 85.7654 18.0928 86.1521 17.9502C86.5387 17.8076 87.1492 17.6854 87.4951 17.665C87.8614 17.665 88.4719 17.7872 88.8179 17.9298C89.1842 18.0928 89.7336 18.5001 90.0388 18.8464C90.3644 19.213 90.6697 19.8444 90.7307 20.2517C90.7918 20.6794 90.7918 21.3515 90.7104 21.7385C90.629 22.1459 90.2423 22.7569 89.815 23.1846C89.3266 23.687 88.8111 23.9857 88.2684 24.0808C87.8207 24.1623 87.1288 24.1623 86.7422 24.0808C86.3352 23.9993 85.7247 23.6123 85.2974 23.1846C84.7954 22.6958 84.497 22.1798 84.402 21.6367C84.3206 21.1886 84.3206 20.5165 84.3817 20.1499C84.4427 19.8036 84.7276 19.213 84.9718 18.8667Z" fill="black"></path>
  <path d="M10.0853 18.8667C10.3499 18.5001 10.8789 18.0928 11.2656 17.9502C11.6522 17.8076 12.2627 17.6854 12.6087 17.665C12.975 17.665 13.5854 17.7872 13.9314 17.9298C14.2977 18.0928 14.8471 18.5001 15.1524 18.8464C15.478 19.213 15.7832 19.8444 15.8442 20.2517C15.9053 20.6794 15.9053 21.3515 15.8239 21.7385C15.7425 22.1459 15.3559 22.7569 14.9285 23.1846C14.4401 23.687 13.9246 23.9857 13.3819 24.0808C12.9343 24.1623 12.2424 24.1623 11.8557 24.0808C11.4487 23.9993 10.8382 23.6123 10.4109 23.1846C9.90895 22.6958 9.61049 22.1798 9.51553 21.6367C9.43413 21.1886 9.43413 20.5165 9.49518 20.1499C9.55623 19.8036 9.84112 19.213 10.0853 18.8667Z" fill="black"></path>
</svg>
