<?xml version="1.0" encoding="UTF-8"?>
<svg xmlns="http://www.w3.org/2000/svg" width="100" height="100" fill="none">
  <g clip-path="url(#clip0_3681_143)">
    <path d="M1.113 1.543c.41-.45 1.055-.977 1.426-1.172C3.183.04 4.433.02 30.819 0c26.503 0 27.597.02 28.32.371.39.195 1.035.703 1.406 1.133.371.43.8 1.133.918 1.543.176.547.254 2.637.254 7.207 0 4.473-.078 6.68-.235 7.226-.136.45-.605 1.153-1.132 1.66-.508.528-1.211.997-1.66 1.133-.587.176-7.285.235-27.832.235-17.323 0-27.303-.078-27.772-.195-.45-.118-1.133-.567-1.7-1.114C.763 18.594.353 17.99.216 17.48.078 16.992 0 14.316 0 10.255c0-3.652.078-6.758.195-7.188.117-.39.528-1.093.918-1.523z" fill="#000"></path>
    <path d="M3.278 10.254c-.04-5.332 0-6.504.234-6.7.215-.175 6.582-.234 27.343-.234 21.562 0 27.109.04 27.304.235.176.195.234 1.757.234 6.699 0 4.805-.058 6.504-.234 6.7-.176.175-5.898.233-27.304.233-21.562 0-27.108-.039-27.304-.234-.175-.195-.254-1.797-.273-6.7z" fill="#625EA9"></path>
    <path d="M20.509 9.61c.175-.293.605-.683.976-.86.625-.331 1.777-.35 15.234-.35 13.456 0 14.609.019 15.234.35.37.177.8.567.976.86.215.39.254.664.098 1.055-.117.293-.45.703-.742.938-.547.41-.625.41-15.566.41s-15.02 0-15.566-.41c-.293-.235-.644-.645-.742-.938-.156-.39-.117-.664.098-1.055zM7.52 6.524c.312-.254 1.054-.566 1.62-.722.684-.176 1.29-.215 1.758-.117.391.078.957.253 1.25.351.313.117.918.586 1.368 1.055.507.508.937 1.191 1.093 1.719.157.468.274 1.132.274 1.445 0 .332-.117.976-.254 1.465-.176.566-.586 1.191-1.153 1.757-.507.489-1.23.977-1.66 1.114a6.215 6.215 0 0 1-1.562.254c-.43 0-1.133-.118-1.563-.254-.43-.137-1.152-.625-1.66-1.114-.625-.625-.957-1.171-1.152-1.855-.156-.527-.273-1.23-.254-1.563.02-.312.137-.898.254-1.269.137-.371.41-.938.645-1.25a4.9 4.9 0 0 1 .996-1.016z" fill="#000"></path>
    <path d="M8.79 10.254c.019-.274.233-.723.487-.977.254-.273.703-.488.977-.488.273 0 .703.215.976.488.274.274.489.703.489.977 0 .273-.215.703-.489.976-.253.274-.703.489-.976.489-.274 0-.703-.215-.977-.489-.273-.273-.488-.703-.488-.976z" fill="#fff"></path>
    <path d="M68.691 1.543c.41-.45 1.055-.977 1.426-1.172C70.742.04 71.407.02 77.871 0c6.523 0 7.148.02 7.812.371.41.195 1.055.703 1.426 1.133.37.43.8 1.133.918 1.543.175.547.254 2.637.254 7.207 0 4.473-.079 6.68-.235 7.226-.137.45-.605 1.153-1.133 1.66-.507.528-1.21.997-1.66 1.133-.546.157-2.793.235-7.324.235-3.73 0-6.855-.078-7.265-.195-.45-.118-1.133-.567-1.7-1.114-.624-.605-1.034-1.21-1.171-1.719-.137-.488-.215-3.164-.215-7.226 0-3.652.078-6.758.195-7.188.118-.39.528-1.093.918-1.523z" fill="#000"></path>
    <path d="M70.856 10.254c-.04-5.332 0-6.504.234-6.7.196-.175 2.012-.234 6.816-.234 5.04 0 6.621.059 6.817.235.175.195.234 1.757.234 6.699 0 4.805-.058 6.504-.234 6.7-.176.175-1.797.233-6.797.233-5.02 0-6.601-.058-6.797-.234-.175-.195-.254-1.797-.273-6.7z" fill="#FBA929"></path>
    <path d="M1.113 27.892c.41-.43 1.094-.957 1.524-1.153.664-.312 1.328-.37 4.59-.37 3.73-.02 3.808 0 4.198.429.215.254.489.625.625.84.157.293.157.507-.02.878-.116.274-.448.606-.702.723-.332.176-1.563.254-3.809.254-2.636 0-3.418.059-4.199.586v6.484c0 5 .059 6.563.235 6.758.195.196 5.742.235 27.303.235 21.406 0 27.128-.059 27.304-.235.176-.195.235-1.914.235-13.242l-.43-.293c-.39-.254-3.027-.293-21.25-.293-18.221 0-20.858-.039-21.23-.293-.253-.156-.527-.469-.605-.683-.097-.235-.058-.645.098-1.075.137-.37.43-.761.644-.879.254-.117 7.813-.195 21.523-.195 20.039 0 21.19.02 21.933.371.43.195 1.113.723 1.504 1.152.41.45.82 1.153.937 1.544.118.43.196 3.535.196 7.187 0 4.453-.078 6.68-.235 7.227-.136.449-.605 1.152-1.132 1.66-.508.527-1.211.996-1.66 1.133-.587.175-7.285.234-27.832.234-20.546 0-27.245-.059-27.83-.234-.45-.137-1.153-.606-1.66-1.133C.84 45 .37 44.298.233 43.849.078 43.302 0 41.075 0 36.621c0-3.652.078-6.758.195-7.188.117-.39.528-1.093.918-1.543zm67.574-.001c.41-.43 1.094-.957 1.523-1.153.703-.332 1.426-.37 7.715-.37s7.011.038 7.715.37c.43.196 1.113.723 1.503 1.153.41.449.82 1.152.938 1.543.117.43.195 3.535.195 7.187 0 4.453-.078 6.68-.234 7.227-.137.449-.606 1.152-1.133 1.66-.508.527-1.21.996-1.66 1.133-.43.117-1.25.234-2.832.234v8.496h1.328c1.055 0 1.484.098 2.187.508.86.508.899.508 1.368.156.273-.195.879-.45 1.367-.566.488-.137 1.23-.176 1.66-.098.43.059 1.133.313 2.344.996l.878-.508c.684-.37 1.153-.488 2.051-.468.8 0 1.426.136 1.953.41.43.234.977.625 1.211.879.215.234.586.78.82 1.172.41.722.41.957.41 20.37l-1.367 6.25c-1.289 5.821-1.347 6.27-1.035 6.426.195.098.606.45.918.782.313.332.762 1.054 1.016 1.582.41.86.469 1.25.469 3.32.019 2.05-.04 2.402-.391 2.89-.274.372-.567.528-.977.528-.312 0-.8-.098-1.074-.195-.293-.118-.566-.45-.683-.82-.118-.352-.196-1.466-.196-2.442 0-1.152-.097-2.012-.273-2.344-.137-.312-.488-.664-.781-.781-.391-.195-2.91-.254-10.469-.254-8.456 0-10.058.04-10.546.293-.332.156-.723.586-.88.977-.194.455-.292 1.334-.292 2.636 0 1.817-.04 1.993-.488 2.442a1.468 1.468 0 0 1-1.114.488c-.39 0-.82-.176-1.093-.45-.41-.39-.45-.585-.43-2.773 0-1.699.078-2.617.332-3.32.195-.566.683-1.348 1.172-1.855.469-.489.84-.899.84-.918 0-.04-2.637-5.645-5.86-12.461-3.222-6.817-5.937-12.735-6.035-13.145-.097-.41-.097-1.133.02-1.7.098-.546.371-1.269.605-1.64.235-.37.645-.84.918-1.054.274-.196.801-.489 1.172-.645.371-.156 1.113-.273 1.66-.273.528 0 1.328.175 1.758.351.469.215 1.719 1.328 3.164 2.793 1.309 1.328 2.559 2.656 2.773 2.95.235.312.489.507.606.449.117-.059.195-3.516.195-19.434h-1.113c-.625 0-1.484-.117-1.914-.234-.45-.137-1.152-.606-1.66-1.133-.528-.508-.996-1.211-1.133-1.66-.156-.547-.234-2.774-.234-7.227 0-3.652.078-6.758.195-7.187.117-.391.527-1.094.918-1.543z" fill="#000"></path>
    <path d="M95.097 77.344c.39-1.211.296-1.7.315-10.254l.098-8.887.446.098c.234.078.586.312.781.547.332.41.352 1.074.313 19.18L94.413 89.94l-18.73.118-.779-1.485 3.711.098c2.246-.098 3.377.117 4.49-.176.86-.234 2.344-.8 3.32-1.25.957-.469 2.422-1.387 3.223-2.05.8-.645 1.777-1.563 2.168-2.032.37-.45.957-1.23 1.289-1.719.332-.488.82-1.308 1.093-1.855.254-.527.664-1.543.899-2.246z" fill="#FBC58E"></path>
    <path d="M90.214 61.816c-.059-1.601-.196-3.086-.293-3.28-.157-.294-.118-.313.293-.196.254.097.566.273.683.43.137.175.254 1.601.313 3.671.058 1.856.039 3.38-.04 3.38-.097 0-.312-.235-.488-.528-.273-.43-.37-1.152-.468-3.477zm-5.857 0c-.059-1.601-.176-3.086-.235-3.261v-.02c-.117-.273-.058-.312.313-.176.234.098.546.41.683.684.157.371.215 1.484.137 6.875l-.39-.586c-.333-.488-.41-1.015-.508-3.515zm-6.213 2.402c-.136-.37-.214-4.55-.214-12.656 0-9.55.058-12.11.234-12.11.137-.019.469.157 1.23.743l.04 12.715c.039 6.992 0 12.715-.098 12.715-.078 0-.332-.196-.567-.43a3.762 3.762 0 0 1-.625-.977z" fill="#FBC58E"></path>
    <path d="M76.522 40.254l.547-.39c.293-.235 1.057-.41 1.155-.41.078 0-.296 5.429-.296 12.05.234 9.336.059 12.227.234 12.734.157.39.684 1.035 1.27 1.524.566.469 1.23.84 1.465.84.253.02.664-.157.937-.371.487-.37.488-.43.585-3.793l.001-.036.001-.035c.097-3.363.098-3.423.585-3.793.273-.215 1.055-.293 1.172-.273.136 0-.017.273.1.683.095.38.095 1.623.095 2.82v.11c0 1.23.179 2.422.296 2.734.098.313.446.977.876 1.329.43.332.996.625 1.27.625.273 0 .722-.215.976-.489.488-.488.488-.547.488-3.71 0-3.165 0-3.223.489-3.712.253-.273.901-.39 1.077-.39.156 0 .075.176.192.547.117.332.491 1.816.491 3.164 0 1.953-.237 2.46.036 2.969.196.351.664.859 1.035 1.132.371.274.88.489 1.133.489.254 0 .664-.215.918-.489.488-.488.488-.547.488-3.71 0-3.165 0-3.223.489-3.712.254-.273.765-.488.882-.488.137 0-.004 2.852-.004 8.945 0 8.575-.019 8.985-.41 10.196a23.35 23.35 0 0 1-.898 2.246 19.287 19.287 0 0 1-1.094 1.855c-.332.489-.918 1.27-1.289 1.72-.39.468-1.367 1.386-2.168 2.03-.8.664-2.265 1.582-3.222 2.051-.977.45-2.461 1.016-3.32 1.25-1.27.332-2.168.43-7.988.469l-5.82-12.305c-5.47-11.562-5.82-12.344-5.625-12.93.097-.351.37-.722.586-.84.214-.117.624-.195.917-.195.45-.02 1.211.664 4.356 3.907 3.613 3.71 3.847 3.906 4.53 3.906.411 0 .977-.117 1.27-.274.313-.136.704-.586.88-.976.331-.645.35-1.758.312-29.004z" fill="#FBC58E"></path>
    <path d="M70.839 30.098l.469-.313c.41-.254 1.367-.293 6.62-.293 5.157 0 6.23.04 7.032.586v6.485c0 4.843-.06 6.562-.235 6.738-.137.136-.664.254-2.11.254v-1.621c0-.957-.116-1.953-.292-2.48-.176-.49-.645-1.212-1.035-1.642-.39-.41-1.074-.917-1.504-1.113-.43-.195-1.172-.37-1.66-.37-.489 0-1.23.116-1.66.233-.47.157-1.153.626-1.719 1.172-.664.684-.996 1.23-1.21 1.953-.157.567-.294 1.68-.294 3.868h-.937c-.508 0-1.035-.098-1.172-.235-.176-.195-.254-1.797-.293-13.222z" fill="#625EA9"></path>
    <path d="M11.328 29.238c.273-.136.566-.43.664-.683.176-.371.332-.43 1.328-.43 1.035 0 1.191.059 2.402 1.348l20.898.02c18.3 0 20.956.038 21.777.585v6.504c0 4.824-.059 6.543-.235 6.738-.175.176-5.898.235-27.303.235-21.562 0-27.109-.04-27.304-.235-.176-.195-.235-1.758-.235-13.242l.43-.293c.352-.234 1.133-.293 3.77-.293 2.265 0 3.476-.078 3.808-.254z" fill="#FBA929"></path>
    <path d="M20.508 35.84c.098-.274.488-.625.84-.781.527-.235 2.87-.274 15.331-.293 12.636 0 14.785.039 15.37.293.372.156.762.507.88.78.117.274.195.665.195.88 0 .215-.254.644-1.133 1.562H21.484l-.586-.586c-.332-.332-.585-.761-.585-.976 0-.215.097-.606.195-.88zM7.035 33.377c.625-.625 1.171-.976 1.953-1.191.586-.176 1.113-.332 1.171-.332.06 0 .625.137 1.27.312.898.254 1.387.547 2.05 1.23.528.509.997 1.212 1.134 1.661.117.43.234 1.172.234 1.66 0 .547-.176 1.25-.469 1.856-.254.527-.82 1.23-1.23 1.543-.41.332-1.035.703-1.367.84-.352.136-1.055.253-1.563.253-.527 0-1.308-.175-1.758-.39-.468-.215-1.171-.723-1.562-1.133-.41-.43-.86-1.133-.996-1.621-.156-.469-.274-1.133-.274-1.445 0-.332.118-.977.254-1.465.176-.567.567-1.192 1.153-1.778z" fill="#000"></path>
    <path d="M8.79 36.621c.019-.273.233-.723.487-.977.254-.273.703-.488.977-.488.273 0 .703.215.976.489.274.273.489.703.489.976s-.215.703-.489.977c-.253.273-.703.488-.976.488-.274 0-.703-.215-.977-.488-.273-.274-.488-.703-.488-.977z" fill="#fff"></path>
    <path d="M1.113 54.258c.41-.43 1.094-.957 1.524-1.153.742-.351 2.09-.37 28.221-.37 26.132 0 27.48.019 28.222.37.43.196 1.113.723 1.504 1.153.41.449.82 1.152.937 1.562.098.39.196.957.196 1.27 0 .293-.196.742-.489 1.015-.254.274-.703.489-.976.489-.274 0-.703-.215-.977-.489-.273-.273-.488-.703-.488-.976s-.215-.703-.976-1.465H3.887l-.957.977v12.695l.976.977h53.905l.488.488c.273.273.488.703.488.976 0 .274-.215.704-.957 1.465H30.82c-20.86 0-27.187-.058-27.773-.254-.41-.117-1.074-.507-1.465-.84-.39-.332-.898-.976-1.133-1.425C0 69.94 0 69.805 0 63.243c0-3.829.078-7.013.195-7.423.117-.41.528-1.113.918-1.562z" fill="#000"></path>
    <path d="M2.95 56.621l.468-.469.469-.488H57.81l.488.488c.273.274.488.703.488.977 0 .273.215.703.489.977.273.273.624.488.78.488.255 0 .294.722.294 5.37 0 3.321-.078 5.567-.215 5.919-.098.293-.43.761-1.25 1.582l-1.074-1.153H3.906l-.976-.976.02-12.715z" fill="#625EA9"></path>
    <path d="M20.508 62.988c.02-.273.234-.722.488-.976l.469-.489h30.487l.488.489c.274.273.489.703.489.976 0 .274-.215.703-.957 1.465H21.484l-.488-.488c-.273-.274-.488-.703-.488-.977zm-13.535-2.87c.41-.43 1.093-.958 1.523-1.153.43-.196 1.23-.371 1.758-.371.527 0 1.328.175 1.758.37.43.196 1.113.724 1.503 1.153.41.45.82 1.153.938 1.563.098.39.195.996.195 1.308 0 .313-.117.938-.234 1.368-.137.449-.606 1.152-1.133 1.66-.508.527-1.21.996-1.66 1.132-.43.118-1.055.235-1.367.235-.313 0-.938-.117-1.367-.235-.45-.136-1.153-.605-1.66-1.132-.528-.508-.997-1.211-1.133-1.66-.117-.43-.235-1.055-.235-1.368 0-.312.098-.918.196-1.308.117-.41.527-1.114.918-1.563z" fill="#000"></path>
    <path d="M8.79 62.988c.019-.273.233-.722.487-.976.254-.274.703-.489.977-.489.273 0 .703.215.976.489.274.273.489.703.489.976 0 .274-.215.703-.489.977-.253.273-.703.488-.976.488-.274 0-.703-.215-.977-.488-.273-.274-.488-.703-.488-.977z" fill="#fff"></path>
    <path d="M1.25 80.898c.45-.468 1.152-.957 1.582-1.113.664-.234 5.02-.273 27.929-.293 19.081 0 27.382.059 27.929.215.488.137 1.093.547 1.66 1.113.488.528.996 1.27 1.113 1.7.176.546.254 2.714.254 7.226 0 4.57-.078 6.66-.254 7.207-.117.41-.508 1.074-.84 1.465-.332.39-.976.898-2.226 1.582H3.223l-.684-.41c-.371-.234-.937-.645-1.23-.938-.313-.273-.723-.84-.938-1.23C.02 96.738 0 96.192 0 90c0-4.394.078-6.973.215-7.48.137-.43.586-1.153 1.035-1.622z" fill="#000"></path>
    <path d="M3.278 89.746c-.04-5.332 0-6.504.234-6.7.215-.175 6.582-.234 27.343-.234 21.562 0 27.109.04 27.304.235.176.195.234 1.758.234 6.7 0 4.804-.058 6.503-.234 6.698-.176.176-5.898.235-27.304.235-21.562 0-27.108-.04-27.304-.235-.175-.195-.254-1.797-.273-6.699z" fill="#FBA929"></path>
    <path d="M20.51 89.1c.176-.293.606-.684.977-.86.625-.331 1.778-.351 15.234-.351 13.457 0 14.609.02 15.234.352.371.175.8.566.977.859.214.39.253.664.097 1.055-.117.293-.449.703-.742.937-.547.41-.625.41-15.566.41-14.94 0-15.019 0-15.566-.41-.293-.234-.644-.644-.742-.937-.156-.391-.117-.664.098-1.055zM7.036 86.522c.488-.488 1.191-.977 1.562-1.094.371-.137 1.074-.234 1.563-.254.488 0 1.23.098 1.66.235.43.136 1.152.625 1.66 1.113.488.508.976 1.23 1.113 1.66.137.43.254 1.133.254 1.563 0 .43-.117 1.132-.254 1.562-.137.43-.625 1.152-1.113 1.66-.508.488-1.23.977-1.66 1.113a6.21 6.21 0 0 1-1.563.254 6.21 6.21 0 0 1-1.562-.254c-.43-.136-1.153-.625-1.66-1.113-.567-.566-.977-1.191-1.153-1.758-.136-.488-.254-1.152-.254-1.465 0-.312.118-.976.254-1.464.176-.567.586-1.192 1.153-1.758z" fill="#000"></path>
    <path d="M8.79 89.746c.019-.273.233-.723.487-.977.254-.273.703-.488.977-.488.273 0 .703.215.976.488.274.274.489.704.489.977s-.215.703-.489.977c-.253.273-.703.488-.976.488-.274 0-.703-.215-.977-.488-.273-.274-.488-.704-.488-.977z" fill="#fff"></path>
    <path d="M73.672 94.531c.137-.351.527-.82.84-1.015.546-.332 1.308-.352 10.585-.352 7.617 0 10.137.059 10.527.234.293.137.645.489.782.782.175.351.273 1.21.273 2.441 0 1.543.078 2.05.781 3.379H85.156c-6.758 0-12.304-.059-12.304-.156 0-.078.136-.313.292-.528.215-.273.293-.898.293-2.246 0-1.035.098-2.148.235-2.539z" fill="#625EA9"></path>
  </g>
  <defs>
    <clipPath id="clip0_3681_143">
      <path fill="#fff" d="M0 0H100V100H0z"></path>
    </clipPath>
  </defs>
</svg>
